<?xml version="1.0" encoding="UTF-8"?><svg id="_レイヤー_2" xmlns="http://www.w3.org/2000/svg" xmlns:xlink="http://www.w3.org/1999/xlink" viewBox="0 0 134.64 134.64"><defs><style>.cls-1{fill:url(#_名称未設定グラデーション_89);}.cls-2{fill:#fff;filter:url(#drop-shadow-1);}</style><filter id="drop-shadow-1" filterUnits="userSpaceOnUse"><feOffset dx="7" dy="7"/><feGaussianBlur result="blur" stdDeviation="5"/><feFlood flood-color="#231815" flood-opacity=".25"/><feComposite in2="blur" operator="in"/><feComposite in="SourceGraphic"/></filter><linearGradient id="_名称未設定グラデーション_89" x1="62.72" y1="22.03" x2="99.26" y2="57.99" gradientTransform="translate(-24.71 27.39) rotate(-6.56)" gradientUnits="userSpaceOnUse"><stop offset="0" stop-color="#3a2e86"/><stop offset=".61" stop-color="#7dc2bc"/></linearGradient></defs><g id="_レイヤー_1-2"><rect class="cls-2" x="8.09" y="8.02" width="104.46" height="104.46" rx="31.04" ry="31.04"/><path class="cls-1" d="M66.03,53.72c-.89-3-1.18-3.99-2.3-6.9-.55-1.42-1.28-4.02-3.34-3.23-.97,.37-1.34,1.43-.99,2.35,.26,.68,.56,1.29,.83,1.98,1.09,2.86,1.46,3.83,2.33,6.77m2.19,7.68c.52,1.7,.41,1.28,.88,3.01,1.03,3.54,1.88,7.27,3.19,10.7,.35,.92,1.44,1.35,2.35,1,.97-.37,1.43-1.41,1.06-2.37-1.27-3.31-2.11-6.86-3.1-10.29l-.89-3.04s.06-.04-3.48,.99Zm2.91-3.15c2.71-.78,5.38-1.35,8.17-1.76,.14,.01,.31-.06,.42-.1,.8-.31,1.3-1.14,1.16-1.97h.02s.13-4.65,.32-6.03c.25-1.88,.52-2.29,1.17-2.8,.64-.51,2.31-1.52,4.22-1.99,1.67-.4,3.16-1.66,3.33-2.7,.22-1.29-1.05-1.34-1.36-1.37,.28-.21,2.82-1.39,3.09-2.78,.11-.58-.03-1.6-.64-2.15-.72-.64-1.88-.2-2.03-.15,.19-.12,2.47-1.58,2.93-2.01,1.23-1.14,1.29-2.47,.94-3.41-.35-.93-1.42-1.53-2.87-1.61-1.64-.1-6.28,.91-8.79,9.43-.81,2.75-1.19,12.45-1.32,16.24-.33-.17-.72-.24-1.13-.2-2.61,.22-6.13,1.11-8.68,1.83l-3.54,1.03c-2.52,.78-4.96,1.58-7.42,2.53-2.12,.81-4.15,1.66-6.2,2.64-2.41-4.91-7.11-9.13-12.89-8.82-.19,0-.36,.08-.48,.12-.97,.37-1.42,1.4-1.08,2.31,.31,.8,.99,1.19,1.84,1.19,.72-.02,1.32,.02,2.02,.14,3.25,.78,5.9,3.76,7.33,6.62-6.63,3.4-17.83,13.14-14.56,21.65,1.18,3.09,4.18,5.08,7.49,3.8,9.03-3.47,13.73-14.44,11.58-23.58,2.05-.98,4.2-1.88,6.31-2.69,2.34-.9,4.67-1.66,7.06-2.45l3.56-.97Zm-29.83,26.27c-1.37,.52-2.28-.5-2.75-1.7-1.69-4.4,3.61-10.23,6.55-12.8,1.77-1.53,3.66-2.92,5.72-4.04,1.27,7.25-2.39,15.8-9.53,18.54Z"/></g></svg>